<svg id="logo-mt-2" xmlns="http://www.w3.org/2000/svg" width="235.504" height="120.928" viewBox="0 0 235.504 120.928">
  <g id="Group_3" data-name="Group 3" transform="translate(1.007)">
    <path id="Path_61" data-name="Path 61" d="M41.964,61.446l1.627-8.367-4.416-10.3-4.881-5.113-.31-.232c7.9,3.409,13.789,12.7,14.8,24.015v.077Zm-2.556,0H30.731V37.818l.077.077c5.113,4.338,8.522,13.092,8.522,23.163A1.037,1.037,0,0,1,39.407,61.446Zm9.3,0h-6.74V60.206c0,.542,0-1.549-.232-4.106a34.443,34.443,0,0,0-5.345-15.649,17.645,17.645,0,0,0-2.4-2.944V37.43s.62.387,1.007.62a11.07,11.07,0,0,1,1.549,1.085A51.906,51.906,0,0,1,40.724,42.7l.7.7c.31.31.62.775.93,1.085a31.492,31.492,0,0,1,2.944,4.261,17.146,17.146,0,0,1,1.239,2.711A33.06,33.06,0,0,1,48.7,61.213Zm0-.31Zm3.331-.852L48.7,46.8l-6.972-7.437S39.64,37.9,38.478,37.121c-.465-.31-.852-.542-.852-.542h0a27.9,27.9,0,0,1,17.43,24.867h0ZM38.555,37.121m12.7,24.325s-.232-2.711-.7-5.19A26.045,26.045,0,0,0,49.4,52.149,25.235,25.235,0,0,0,47.774,48.2a30.366,30.366,0,0,0-5.035-7.514,24.554,24.554,0,0,0-2.479-2.4c-.62-.542-1.239-.93-1.627-1.239.232.155.542.31.93.542.7.387,1.549.93,2.479,1.549.387.31.775.542,1.239.852.077.077,1.394,1.085,2.634,2.247C47,43.241,47.929,44.4,48.626,45.177a32.417,32.417,0,0,1,3.409,5.268,30.048,30.048,0,0,1,2.4,6.817,34.783,34.783,0,0,1,.62,4.106Zm-2.556,0h-6.74V60.206c0,.542,0-1.549-.232-4.106a34.443,34.443,0,0,0-5.345-15.649,17.645,17.645,0,0,0-2.4-2.944V37.43s.62.387,1.007.62a11.07,11.07,0,0,1,1.549,1.085A51.906,51.906,0,0,1,40.724,42.7l.7.7c.31.31.62.775.93,1.085a31.492,31.492,0,0,1,2.944,4.261,17.146,17.146,0,0,1,1.239,2.711A33.06,33.06,0,0,1,48.7,61.213Zm0-.31ZM24.688,37.663l-4.881,5.113-4.416,10.3,1.627,8.367H10.2v-.077C11.209,50.135,17.1,40.839,25,37.353ZM19.5,61.523v-.387c0-10.071,3.486-18.825,8.522-23.163L28.1,37.9V61.523Zm-9.219-.387ZM24.921,37.43a22.763,22.763,0,0,0-2.4,2.944,35.38,35.38,0,0,0-5.345,15.649c-.232,2.634-.232,4.648-.232,4.106v1.239H10.2v-.31h0A32.562,32.562,0,0,1,12.371,51.3c.387-.93.775-1.782,1.239-2.711a21.793,21.793,0,0,1,2.944-4.261c.232-.31.62-.7.93-1.085l.7-.7a27.63,27.63,0,0,1,4.183-3.564c.465-.387,1.007-.7,1.549-1.085a6.77,6.77,0,0,0,1.007-.465Zm-4.493-.387c-1.162.775-3.254,2.247-3.254,2.247L10.2,46.8,6.638,61.446H3.772A27.9,27.9,0,0,1,21.2,36.578h0A8.049,8.049,0,0,0,20.428,37.043Zm-4.183,3.718a30.366,30.366,0,0,0-5.035,7.514,39,39,0,0,0-1.627,3.951A26.046,26.046,0,0,0,8.42,56.333c-.465,2.4-.7,5.19-.7,5.19H4a34.783,34.783,0,0,1,.62-4.106,31.408,31.408,0,0,1,2.4-6.817,30.1,30.1,0,0,1,3.409-5.345,22.933,22.933,0,0,1,2.711-2.944c1.239-1.162,2.556-2.169,2.634-2.247a7.02,7.02,0,0,1,1.239-.852c.93-.62,1.782-1.085,2.479-1.549.387-.232.7-.387.93-.542-.387.31-1.007.7-1.627,1.239A19.324,19.324,0,0,0,16.244,40.762Zm4.106-3.641M10.279,61.136ZM24.921,37.43a22.763,22.763,0,0,0-2.4,2.944,35.38,35.38,0,0,0-5.345,15.649c-.232,2.634-.232,4.648-.232,4.106v1.239H10.2v-.31h0A32.562,32.562,0,0,1,12.371,51.3c.387-.93.775-1.782,1.239-2.711a21.793,21.793,0,0,1,2.944-4.261c.232-.31.62-.7.93-1.085l.7-.7a27.63,27.63,0,0,1,4.183-3.564c.465-.387,1.007-.7,1.549-1.085a6.77,6.77,0,0,0,1.007-.465Zm9.606-9.3H24.456a.167.167,0,0,1-.155-.155v-.387a.167.167,0,0,1,.155-.155H34.527a.167.167,0,0,1,.155.155v.387A.167.167,0,0,1,34.527,28.134Zm0,7.592H24.456a.167.167,0,0,1-.155-.155v-.387a.167.167,0,0,1,.155-.155H34.527a.167.167,0,0,1,.155.155v.387A.167.167,0,0,1,34.527,35.726ZM56.45,64.157h-54A.167.167,0,0,1,2.3,64v-.465a.167.167,0,0,1,.155-.155h54a.167.167,0,0,1,.155.155V64A.167.167,0,0,1,56.45,64.157ZM28.484,22.092h-.155V21.7h.155v.387Zm2.092,0h-.155V21.7h.155v.387Zm-2.247.077v-.155h2.247v.155Zm1.239-1.627h-.155a.076.076,0,0,1-.077-.077v-.387A.076.076,0,0,1,29.414,20h.155a.076.076,0,0,1,.077.077l-.077.465Zm-.155,2.634V20.542h.155v2.634Zm-3.873,3.718h0a4.04,4.04,0,0,1,3.873-4.106,3.92,3.92,0,0,1,3.873,4.028H25.541Zm8.831,1.162H24.533a.333.333,0,0,1-.31-.31v-.077a.333.333,0,0,1,.31-.31h9.838a.333.333,0,0,1,.31.31v.077A.284.284,0,0,1,34.372,28.057Zm0,7.669H24.533a.333.333,0,0,1-.31-.31v-.077a.333.333,0,0,1,.31-.31h9.838a.333.333,0,0,1,.31.31v.077A.333.333,0,0,1,34.372,35.726Zm-4.416-1.317H28.949a.333.333,0,0,1-.31-.31V28.831a.333.333,0,0,1,.31-.31h1.007a.333.333,0,0,1,.31.31V34.1A.333.333,0,0,1,29.956,34.409Zm2.556,0H31.506a.333.333,0,0,1-.31-.31V28.831a.333.333,0,0,1,.31-.31h1.007a.333.333,0,0,1,.31.31V34.1A.333.333,0,0,1,32.513,34.409Zm-5.113,0H26.393a.333.333,0,0,1-.31-.31V28.831a.333.333,0,0,1,.31-.31H27.4a.333.333,0,0,1,.31.31V34.1A.333.333,0,0,1,27.4,34.409ZM39.252,63.692V62.53a.205.205,0,0,1,.232-.232h2.4a.205.205,0,0,1,.232.232v1.085Zm2.556,4.261H39.485a.333.333,0,0,1-.31-.31V65.319a.333.333,0,0,1,.31-.31h2.324a.333.333,0,0,1,.31.31v2.324A.333.333,0,0,1,41.809,67.953Zm6.662-4.261V62.53A.205.205,0,0,1,48.7,62.3h2.4a.205.205,0,0,1,.232.232v1.085Zm2.556,4.261H48.7a.333.333,0,0,1-.31-.31V65.319a.333.333,0,0,1,.31-.31h2.324a.333.333,0,0,1,.31.31v2.324A.284.284,0,0,1,51.028,67.953ZM16.787,63.615V62.53a.205.205,0,0,1,.232-.232h2.4a.205.205,0,0,1,.232.232v1.162Zm2.634,4.338H17.1a.333.333,0,0,1-.31-.31V65.319a.333.333,0,0,1,.31-.31h2.324a.333.333,0,0,1,.31.31v2.324A.333.333,0,0,1,19.421,67.953ZM7.568,63.615V62.53A.205.205,0,0,1,7.8,62.3h2.4a.205.205,0,0,1,.232.232v1.162Zm2.556,4.338H7.8a.333.333,0,0,1-.31-.31V65.319a.333.333,0,0,1,.31-.31h2.324a.333.333,0,0,1,.31.31v2.324A.333.333,0,0,1,10.124,67.953Zm17.9-4.338V62.53a.205.205,0,0,1,.232-.232h2.4a.205.205,0,0,1,.232.232v1.162Zm2.556,4.338H28.252a.333.333,0,0,1-.31-.31V65.319a.333.333,0,0,1,.31-.31h2.324a.333.333,0,0,1,.31.31v2.324A.333.333,0,0,1,30.576,67.953Zm25.72-3.8H2.61a.333.333,0,0,1-.31-.31v-.155a.333.333,0,0,1,.31-.31H56.3a.333.333,0,0,1,.31.31v.155A.333.333,0,0,1,56.3,64.157Zm0,6.352H2.61a.333.333,0,0,1-.31-.31V68.96a.333.333,0,0,1,.31-.31H56.3a.333.333,0,0,1,.31.31V70.2A.333.333,0,0,1,56.3,70.509Z" transform="translate(-2.3 -20)" fill="#003876"/>
  </g>
  <g id="Group_4" data-name="Group 4" transform="translate(1.239 58.411)">
    <path id="Path_62" data-name="Path 62" d="M2.6,99.2h0a3.671,3.671,0,0,1,3.641-3.8,4.076,4.076,0,0,1,2.711.93l-.542.62A3.1,3.1,0,0,0,6.241,96.1a2.814,2.814,0,0,0-2.789,2.944h0a2.807,2.807,0,0,0,2.866,3.021,3.377,3.377,0,0,0,2.092-.7V99.583H6.241v-.62H9.262v2.866a4.391,4.391,0,0,1-2.944,1.085A3.537,3.537,0,0,1,2.6,99.2Z" transform="translate(-2.6 -95.4)" fill="#003876"/>
    <path id="Path_63" data-name="Path 63" d="M14.6,99.2h0a3.719,3.719,0,1,1,7.437-.077h0a3.623,3.623,0,0,1-3.718,3.718A3.561,3.561,0,0,1,14.6,99.2Zm6.507,0h0a2.9,2.9,0,0,0-2.866-3.021,2.83,2.83,0,0,0-2.866,2.944h0a2.9,2.9,0,0,0,2.866,3.021A2.787,2.787,0,0,0,21.107,99.2Z" transform="translate(-5.304 -95.4)" fill="#003876"/>
    <path id="Path_64" data-name="Path 64" d="M27.877,95.6h3.1a2.551,2.551,0,0,1,1.859.62,1.577,1.577,0,0,1,.465,1.162h0a1.8,1.8,0,0,1-1.162,1.7,1.83,1.83,0,0,1,1.549,1.782h0c0,1.239-1.007,1.937-2.634,1.937H27.8V95.6Zm2.944,3.254c1.007,0,1.627-.465,1.627-1.317h0c0-.7-.542-1.162-1.627-1.162H28.652v2.479Zm.31,3.254c1.085,0,1.782-.465,1.782-1.317h0c0-.775-.7-1.239-1.937-1.239H28.652v2.556h2.479Z" transform="translate(-8.278 -95.445)" fill="#003876"/>
    <path id="Path_65" data-name="Path 65" d="M39.2,95.6h.852v7.2H39.2Z" transform="translate(-10.847 -95.445)" fill="#003876"/>
    <path id="Path_66" data-name="Path 66" d="M44.5,95.6h5.268v.775H45.352v2.479H49.3v.775H45.352v2.556h4.493v.775H44.577V95.6Z" transform="translate(-12.041 -95.445)" fill="#003876"/>
    <path id="Path_67" data-name="Path 67" d="M54.9,95.6H58a2.966,2.966,0,0,1,2.092.7,1.867,1.867,0,0,1,.542,1.394h0A2.108,2.108,0,0,1,58.7,99.783l2.247,2.944H59.935l-2.092-2.789H55.752v2.789H54.9ZM58,99.318c1.085,0,1.859-.542,1.859-1.472h0c0-.852-.7-1.394-1.859-1.394H55.752V99.4H58Z" transform="translate(-14.384 -95.445)" fill="#003876"/>
    <path id="Path_68" data-name="Path 68" d="M66.1,95.6h.775l4.571,5.81V95.6h.775v7.2H71.6L66.952,96.84V102.8h-.775V95.6Z" transform="translate(-16.908 -95.445)" fill="#003876"/>
    <path id="Path_69" data-name="Path 69" d="M77.8,99.2h0a3.719,3.719,0,1,1,7.437-.077h0a3.623,3.623,0,0,1-3.718,3.718A3.561,3.561,0,0,1,77.8,99.2Zm6.507,0h0a2.9,2.9,0,0,0-2.866-3.021,2.83,2.83,0,0,0-2.866,2.944h0a2.9,2.9,0,0,0,2.866,3.021A2.787,2.787,0,0,0,84.307,99.2Z" transform="translate(-19.544 -95.4)" fill="#003876"/>
    <path id="Path_70" data-name="Path 70" d="M96.6,95.6h2.479a3.634,3.634,0,0,1,3.873,3.564h0a3.649,3.649,0,0,1-3.873,3.641H96.6Zm2.556,6.507a2.809,2.809,0,0,0,3.021-2.866h0a2.809,2.809,0,0,0-3.021-2.866h-1.7v5.733h1.7Z" transform="translate(-23.78 -95.445)" fill="#003876"/>
    <path id="Path_71" data-name="Path 71" d="M108.6,95.6h5.268v.775h-4.416v2.479H113.4v.775h-3.951v2.556h4.493v.775h-5.268V95.6Z" transform="translate(-26.483 -95.445)" fill="#003876"/>
    <path id="Path_72" data-name="Path 72" d="M124.6,95.6h.852v6.507h4.106v.775h-4.881V95.6Z" transform="translate(-30.089 -95.445)" fill="#003876"/>
    <path id="Path_73" data-name="Path 73" d="M136.854,95.6h.775l3.331,7.282h-.852l-.852-1.937H135.3l-.852,1.937H133.6Zm2.014,4.648-1.627-3.718-1.627,3.718Z" transform="translate(-32.116 -95.445)" fill="#003876"/>
  </g>
  <g id="Group_5" data-name="Group 5" transform="translate(0.077 69.141)">
    <path id="Path_74" data-name="Path 74" d="M12.1,124.248c.077,0,.077.077.077.232s0,.232-.077.232a4.534,4.534,0,0,1-1.007.155,2.734,2.734,0,0,1-1.085-.232A3.2,3.2,0,0,1,9,123.861l-2.324-2.944a2.363,2.363,0,0,0-1.007-.775A6.507,6.507,0,0,0,4.2,119.91v2.866a1.338,1.338,0,0,0,.387,1.007,2.337,2.337,0,0,0,1.239.387.27.27,0,0,1,.077.155v.232a.27.27,0,0,1-.077.155H1.255a.27.27,0,0,1-.077-.155c0-.077-.077-.155-.077-.232s0-.155.077-.155a1.7,1.7,0,0,0,.93-.387,1.235,1.235,0,0,0,.31-.93v-6.662a1.315,1.315,0,0,0-.31-1.007,1.767,1.767,0,0,0-.93-.465c-.077,0-.077-.155-.077-.31s.077-.232.155-.232a10.938,10.938,0,0,0,1.7.077,12.051,12.051,0,0,0,1.549-.077c.62,0,1.085-.077,1.317-.077a4.956,4.956,0,0,1,2.789.7,2.318,2.318,0,0,1,1.007,2.092,2.459,2.459,0,0,1-.775,1.937,3.32,3.32,0,0,1-1.859.775v.077a1.766,1.766,0,0,1,.852.232,4.358,4.358,0,0,1,.852.852l2.247,2.789a1.467,1.467,0,0,0,1.162.7Zm-7.437-5.035a5.629,5.629,0,0,0,2.4-.387,1.532,1.532,0,0,0,.7-1.472,2.478,2.478,0,0,0-.62-1.782,2.552,2.552,0,0,0-1.7-.62,1.131,1.131,0,0,0-.93.31c-.232.232-.232.465-.232.93v3.1l.387-.077Z" transform="translate(-1.1 -110.343)" fill="#003876"/>
    <path id="Path_75" data-name="Path 75" d="M18.455,124.658c-.077,0-.077-.077-.155-.232,0-.155,0-.232.077-.31.31-.077.542-.155.62-.155a.67.67,0,0,0,.465-.232c.155-.155.31-.232.387-.387a1.51,1.51,0,0,0,.077-.62v-6.662c0-.465-.077-.775-.31-.93a2.61,2.61,0,0,0-.93-.465c-.077,0-.077-.077-.077-.232s.077-.232.155-.232c.542.077,1.859.077,3.873.077H23.8a6.664,6.664,0,0,0,1.239-.077h1.085a.4.4,0,0,1,.31.155v.387l-.387,1.394c0,.077-.077.155-.232.155s-.232-.077-.232-.155a1.559,1.559,0,0,0-.7-.852,4.742,4.742,0,0,0-1.859-.31,1.875,1.875,0,0,0-1.085.232.816.816,0,0,0-.31.775v2.4a.592.592,0,0,0,.155.387.581.581,0,0,0,.387.077h.31a4.281,4.281,0,0,0,2.866-.7c.077-.077.155-.077.31-.077s.155.155.077.232l-.852,1.859q-.116.232-.232.232c-.077,0-.155-.077-.232-.155a2.33,2.33,0,0,0-2.014-.7h-.232a.581.581,0,0,0-.387.077.455.455,0,0,0-.155.387v2.479a1.469,1.469,0,0,0,.31.93,2.312,2.312,0,0,0,1.239.232,3.742,3.742,0,0,0,3.486-1.627c.077-.077.155-.077.31-.077a.247.247,0,0,1,.232.232,2.95,2.95,0,0,1-.465,1.472,1.288,1.288,0,0,1-1.085.775c-1.085-.077-2.092-.077-2.944-.077-2.169.232-3.641.31-4.261.31Z" transform="translate(-4.975 -110.365)" fill="#003876"/>
    <path id="Path_76" data-name="Path 76" d="M42.631,117.354A2.865,2.865,0,0,1,41,120.143a6.57,6.57,0,0,1-4.183.465v2.169a1.338,1.338,0,0,0,.387,1.007,3.328,3.328,0,0,0,1.239.387.27.27,0,0,1,.077.155v.232a.27.27,0,0,1-.077.155H33.955a.27.27,0,0,1-.077-.155c0-.077-.077-.155-.077-.232s0-.155.077-.155a1.7,1.7,0,0,0,.93-.387,1.235,1.235,0,0,0,.31-.93v-6.662a1.315,1.315,0,0,0-.31-1.007,1.767,1.767,0,0,0-.93-.465c-.077,0-.077-.155-.077-.31s.077-.232.155-.232a10.938,10.938,0,0,0,1.7.077,12.051,12.051,0,0,0,1.549-.077c.62,0,1.007-.077,1.239-.077a5.153,5.153,0,0,1,3.021.775,2.852,2.852,0,0,1,1.162,2.479Zm-5.578-2.169a1.346,1.346,0,0,0-.232.93v3.8a5.252,5.252,0,0,0,2.866-.232,2.078,2.078,0,0,0,.93-1.937,2.52,2.52,0,0,0-.775-2.014,2.9,2.9,0,0,0-1.937-.775A1.246,1.246,0,0,0,37.054,115.185Z" transform="translate(-8.468 -110.343)" fill="#003876"/>
    <path id="Path_77" data-name="Path 77" d="M54.61,123.775a5.9,5.9,0,0,1-1.627-.232,4.709,4.709,0,0,1-1.394-.7,3.675,3.675,0,0,1-1.085-1.317,4.784,4.784,0,0,1-.387-1.937v-4.726c0-.465-.077-.775-.31-.93a2.093,2.093,0,0,0-.93-.387.27.27,0,0,1-.077-.155.285.285,0,0,1,.077-.232.24.24,0,0,0,.077-.155h4.106a.27.27,0,0,1,.077.155c0,.077.077.155.077.232s0,.155-.077.155a1.26,1.26,0,0,0-.852.387c-.232.155-.31.542-.31,1.007v4.8a2.832,2.832,0,0,0,.775,2.247,2.628,2.628,0,0,0,2.014.775,2.8,2.8,0,0,0,2.092-.775,3.1,3.1,0,0,0,.852-2.247v-4.8c0-.465-.077-.775-.31-.93a1.7,1.7,0,0,0-.93-.387.27.27,0,0,1-.077-.155v-.232a.27.27,0,0,1,.077-.155H59.8a.27.27,0,0,1,.077.155c0,.077.077.155.077.232s0,.155-.077.155a1.26,1.26,0,0,0-.852.387,1.725,1.725,0,0,0-.31,1.007v4.648a4.031,4.031,0,0,1-1.162,3.1,4.355,4.355,0,0,1-2.944,1.007Zm0-14.409q.116-.232.465,0a2.088,2.088,0,0,1,.62.542c.155.232.155.387.077.465l-1.937,1.472c-.077.077-.232,0-.387-.155s-.232-.31-.155-.387Z" transform="translate(-11.848 -109.25)" fill="#003876"/>
    <path id="Path_78" data-name="Path 78" d="M73.285,118.9A2.648,2.648,0,0,1,76,121.614a2.722,2.722,0,0,1-1.162,2.247,5.165,5.165,0,0,1-3.021.852,7.66,7.66,0,0,1-1.162-.077c-.62,0-1.085-.077-1.472-.077a18.99,18.99,0,0,0-2.324.077c-.077,0-.077-.077-.155-.232,0-.155,0-.232.077-.31.31-.077.542-.155.62-.155a.67.67,0,0,0,.465-.232c.155-.155.31-.232.387-.387a1.511,1.511,0,0,0,.077-.62v-6.662c0-.465-.077-.775-.31-.93a2.61,2.61,0,0,0-.93-.465c-.077,0-.077-.077-.077-.232s.077-.232.155-.232a12.024,12.024,0,0,0,1.782.077,11.466,11.466,0,0,0,1.549-.077c.62,0,1.007-.077,1.162-.077a4.691,4.691,0,0,1,2.479.62,1.9,1.9,0,0,1,1.007,1.782,1.929,1.929,0,0,1-.542,1.472,2.738,2.738,0,0,1-1.394.775l.077.155Zm-1.549,4.958a2.783,2.783,0,0,0,1.7-.465,1.818,1.818,0,0,0,.62-1.549,2.513,2.513,0,0,0-.7-1.859,2.4,2.4,0,0,0-1.782-.62H70.031v3.254a1.056,1.056,0,0,0,.387.93,2.072,2.072,0,0,0,1.317.31Zm-1.472-8.676a1.246,1.246,0,0,0-.232.852v2.634h1.549a1.486,1.486,0,0,0,1.7-1.7,2.037,2.037,0,0,0-.62-1.549,2.11,2.11,0,0,0-1.549-.542A1.239,1.239,0,0,0,70.264,115.185Z" transform="translate(-15.881 -110.343)" fill="#003876"/>
    <path id="Path_79" data-name="Path 79" d="M82.455,124.658c-.077,0-.077-.077-.155-.232,0-.155,0-.232.077-.31.31-.077.542-.155.62-.155a.853.853,0,0,0,.465-.232c.155-.155.31-.232.387-.387a1.51,1.51,0,0,0,.077-.62v-6.662a1.157,1.157,0,0,0-.232-.775,2.054,2.054,0,0,0-.465-.387,1.459,1.459,0,0,0-.62-.155.27.27,0,0,1-.077-.155.285.285,0,0,1,.077-.232.27.27,0,0,1,.077-.155h4.106a.27.27,0,0,1,.077.155c0,.077.077.155,0,.232,0,.077,0,.155-.077.155a1.7,1.7,0,0,0-.93.387c-.232.155-.31.542-.31,1.007V122.8a1.469,1.469,0,0,0,.31.93,2.312,2.312,0,0,0,1.239.232,3.742,3.742,0,0,0,3.486-1.627c.077-.077.155-.077.31-.077a.247.247,0,0,1,.232.232,2.95,2.95,0,0,1-.465,1.472,1.288,1.288,0,0,1-1.085.775c-1.085-.077-2.092-.077-2.944-.077-2.092-.077-3.564,0-4.183,0Z" transform="translate(-19.396 -110.365)" fill="#003876"/>
    <path id="Path_80" data-name="Path 80" d="M97.455,124.658a.27.27,0,0,1-.077-.155c0-.077-.077-.155-.077-.232s0-.155.077-.155a1.7,1.7,0,0,0,.93-.387,1.235,1.235,0,0,0,.31-.93v-6.74c0-.465-.077-.775-.31-.93a1.7,1.7,0,0,0-.93-.387.27.27,0,0,1-.077-.155.285.285,0,0,1,.077-.232.27.27,0,0,1,.077-.155h4.106a.27.27,0,0,1,.077.155c0,.077.077.155.077.232s0,.155-.077.155a1.7,1.7,0,0,0-.93.387,1.315,1.315,0,0,0-.31,1.007v6.74a1.314,1.314,0,0,0,.31,1.007,1.7,1.7,0,0,0,.93.387.27.27,0,0,1,.077.155.285.285,0,0,1-.077.232.27.27,0,0,1-.077.155l-4.106-.155Z" transform="translate(-22.775 -110.365)" fill="#003876"/>
    <path id="Path_81" data-name="Path 81" d="M112.788,124.8a9.536,9.536,0,0,1-1.549-.155,5.409,5.409,0,0,1-1.549-.62,6.446,6.446,0,0,1-1.394-1.007,7.022,7.022,0,0,1-1.007-1.472,5.486,5.486,0,0,1-.387-2.014,6.069,6.069,0,0,1,.31-2.014,5.851,5.851,0,0,1,1.007-1.782A5.5,5.5,0,0,1,110,114.342a6.931,6.931,0,0,1,2.634-.542,11.557,11.557,0,0,1,1.627.155,3.382,3.382,0,0,1,1.162.387c.232.155.387.31.31.465l-.232.7a1.086,1.086,0,0,1-.31.542.494.494,0,0,1-.465,0,2.718,2.718,0,0,1-.62-.387,2.479,2.479,0,0,0-1.007-.387,7.828,7.828,0,0,0-1.317-.232,3.094,3.094,0,0,0-2.4.93,3.823,3.823,0,0,0-.775,2.634,4.949,4.949,0,0,0,.465,2.169,3.654,3.654,0,0,0,1.085,1.472,9.126,9.126,0,0,0,1.472.852,6.034,6.034,0,0,0,1.627.31,8.889,8.889,0,0,0,1.085-.155,5.182,5.182,0,0,0,1.317-.542c.077,0,.155,0,.232.155s.155.232.077.31a4.445,4.445,0,0,1-1.549,1.162,4.816,4.816,0,0,1-1.627.465Z" transform="translate(-24.938 -110.275)" fill="#003876"/>
    <path id="Path_82" data-name="Path 82" d="M132.955,124.077c.077,0,.155.077.155.232s-.077.232-.155.232H129c-.077,0-.155-.077-.155-.232s0-.232.077-.232a3.355,3.355,0,0,0,.387-.077c.077,0,.232-.155.31-.232a.434.434,0,0,0,.077-.465,4.173,4.173,0,0,0-.232-.775l-.155-.387c-.077-.155-.155-.31-.31-.31s-.31-.077-.542-.077h-3.021c-.232,0-.465,0-.542.077a.6.6,0,0,0-.31.31l-.155.387a1.732,1.732,0,0,0-.232.775c0,.232,0,.387.155.465a1.069,1.069,0,0,1,.31.232.983.983,0,0,0,.465.077c.077,0,.155.077.155.232s-.077.232-.155.232h-3.176c-.077,0-.155-.077-.155-.232s0-.232.155-.232a1.72,1.72,0,0,0,.852-.387,3.788,3.788,0,0,0,.7-1.162l2.556-5.81a9.075,9.075,0,0,0,.775-2.479c0-.077.155-.155.542-.155.387-.077.542-.077.542,0l3.641,8.522a3.476,3.476,0,0,0,.7,1.239,1.471,1.471,0,0,0,.7.232Zm-4.571-3.176h.232c.077,0,.077,0,.155-.077a.107.107,0,0,0,0-.155l-1.782-4.183-1.782,4.183c0,.077,0,.155.077.155s.155.077.31.077Z" transform="translate(-28.296 -110.326)" fill="#003876"/>
    <path id="Path_83" data-name="Path 83" d="M145.555,124.636c-.077,0-.077-.077-.155-.232,0-.155,0-.232.077-.31.31-.077.542-.155.62-.155a.67.67,0,0,0,.465-.232c.155-.155.31-.232.387-.387a1.51,1.51,0,0,0,.077-.62v-6.662c0-.465-.077-.775-.31-.93a2.61,2.61,0,0,0-.93-.465c-.077,0-.077-.077-.077-.232s.077-.232.155-.232a12.6,12.6,0,0,0,1.859.077,13.834,13.834,0,0,0,1.627-.077c.7,0,1.085-.077,1.317-.077a5.732,5.732,0,0,1,4.106,1.394,4.733,4.733,0,0,1,1.472,3.641,6.332,6.332,0,0,1-.62,2.711,4.833,4.833,0,0,1-1.937,2.014,5.489,5.489,0,0,1-3.021.775,9.144,9.144,0,0,1-1.24-.077c-.62,0-1.085-.077-1.549-.077-.93.077-1.7.155-2.324.155Zm5.268-.775c2.4,0,3.641-1.317,3.641-3.873a5.547,5.547,0,0,0-1.162-3.641,3.858,3.858,0,0,0-3.1-1.472,1.875,1.875,0,0,0-1.085.232.965.965,0,0,0-.31.852v6.662a1.1,1.1,0,0,0,.465.93,2.73,2.73,0,0,0,1.549.31Z" transform="translate(-33.613 -110.343)" fill="#003876"/>
    <path id="Path_84" data-name="Path 84" d="M169.023,124.8a5.3,5.3,0,0,1-5.423-5.423,5.564,5.564,0,0,1,1.472-3.951,5.141,5.141,0,0,1,3.951-1.627,5.3,5.3,0,0,1,5.423,5.423,5.564,5.564,0,0,1-1.472,3.951,5.258,5.258,0,0,1-3.951,1.627Zm.542-1.007a3.925,3.925,0,0,0,1.007-.155,2.378,2.378,0,0,0,1.007-.62,3.377,3.377,0,0,0,.775-1.162,5.661,5.661,0,0,0,.31-1.782,5.534,5.534,0,0,0-1.239-3.718,3.772,3.772,0,0,0-2.944-1.472,3.925,3.925,0,0,0-1.007.155,5.075,5.075,0,0,0-1.007.62,2.562,2.562,0,0,0-.775,1.162,5.661,5.661,0,0,0-.31,1.782,5.534,5.534,0,0,0,1.239,3.718,3.772,3.772,0,0,0,2.944,1.472Z" transform="translate(-37.714 -110.275)" fill="#003876"/>
    <path id="Path_85" data-name="Path 85" d="M194.825,124.048a.27.27,0,0,1,.077.155.285.285,0,0,1-.077.232.27.27,0,0,1-.077.155h-3.873a.27.27,0,0,1-.077-.155c0-.077-.077-.155-.077-.232s0-.155.077-.155a1.067,1.067,0,0,0,1.007-1.317l-.31-5.035-2.4,4.958a8.978,8.978,0,0,0-.62,1.549c0,.155-.232.232-.542.232a.468.468,0,0,1-.465-.232l-3.486-6.507-.232,5.113c0,.775.31,1.239,1.085,1.317a.27.27,0,0,1,.077.155.285.285,0,0,1-.077.232.24.24,0,0,0-.077.155h-3.1a.27.27,0,0,1-.077-.155c0-.077-.077-.155-.077-.232s0-.155.077-.155a1.239,1.239,0,0,0,.852-.31c.232-.155.31-.542.387-1.007l.465-8.6c0-.155.077-.232.31-.232a.455.455,0,0,1,.387.155l4.338,8.134,4.028-8.134a.426.426,0,0,1,.387-.232c.232,0,.31.077.31.155l.465,8.6a1.338,1.338,0,0,0,.387,1.007,1.283,1.283,0,0,0,.93.387Z" transform="translate(-41.747 -110.298)" fill="#003876"/>
    <path id="Path_86" data-name="Path 86" d="M202.555,124.658a.27.27,0,0,1-.077-.155c0-.077-.077-.155-.077-.232s0-.155.077-.155a1.7,1.7,0,0,0,.93-.387,1.235,1.235,0,0,0,.31-.93v-6.74c0-.465-.077-.775-.31-.93a1.7,1.7,0,0,0-.93-.387.27.27,0,0,1-.077-.155.285.285,0,0,1,.077-.232.27.27,0,0,1,.077-.155h4.106a.27.27,0,0,1,.077.155c0,.077.077.155.077.232s0,.155-.077.155a1.7,1.7,0,0,0-.93.387,1.315,1.315,0,0,0-.31,1.007v6.74a1.315,1.315,0,0,0,.31,1.007,1.7,1.7,0,0,0,.93.387.27.27,0,0,1,.077.155.285.285,0,0,1-.077.232.27.27,0,0,1-.077.155l-4.106-.155Z" transform="translate(-46.456 -110.365)" fill="#003876"/>
    <path id="Path_87" data-name="Path 87" d="M221.671,124.791a.585.585,0,0,1-.542-.31L214,117.044V122.7a1.51,1.51,0,0,0,.077.62.773.773,0,0,0,.31.387,1.694,1.694,0,0,1,.387.232,3.515,3.515,0,0,0,.62.155c.077,0,.077.077.077.232s-.077.232-.155.232h-3.564c-.077,0-.077-.077-.155-.232,0-.155,0-.232.077-.232a6.71,6.71,0,0,0,.93-.387,1.314,1.314,0,0,0,.31-1.007v-5.81a3.213,3.213,0,0,0-.542-2.092.27.27,0,0,1-.077-.155.076.076,0,0,0-.077-.077l-.077-.077v-.077a.274.274,0,0,1,.31-.31h1.085a.592.592,0,0,1,.387.155l6.972,7.359v-5.578a1.51,1.51,0,0,0-.077-.62.636.636,0,0,0-.387-.387,1.694,1.694,0,0,1-.387-.232c-.077-.077-.31-.077-.542-.155-.077,0-.077-.077-.077-.232s.077-.232.155-.232h3.564c.077,0,.077.077.155.232,0,.155,0,.232-.077.232a3.045,3.045,0,0,1-.465.155.708.708,0,0,0-.387.232,1.36,1.36,0,0,0-.31.387,1.51,1.51,0,0,0-.077.62v5.81a17.193,17.193,0,0,0,.155,2.634.285.285,0,0,1-.077.232.58.58,0,0,1-.387.077Z" transform="translate(-48.529 -110.343)" fill="#003876"/>
    <path id="Path_88" data-name="Path 88" d="M230.455,124.658a.27.27,0,0,1-.077-.155c0-.077-.077-.155-.077-.232s0-.155.077-.155a1.7,1.7,0,0,0,.93-.387,1.235,1.235,0,0,0,.31-.93v-6.74c0-.465-.077-.775-.31-.93a1.7,1.7,0,0,0-.93-.387.27.27,0,0,1-.077-.155.285.285,0,0,1,.077-.232.27.27,0,0,1,.077-.155h4.106a.27.27,0,0,1,.077.155c0,.077.077.155.077.232s0,.155-.077.155a1.7,1.7,0,0,0-.93.387,1.315,1.315,0,0,0-.31,1.007v6.74a1.315,1.315,0,0,0,.31,1.007,1.7,1.7,0,0,0,.93.387.27.27,0,0,1,.077.155.285.285,0,0,1-.077.232.27.27,0,0,1-.077.155l-4.106-.155Z" transform="translate(-52.742 -110.365)" fill="#003876"/>
    <path id="Path_89" data-name="Path 89" d="M245.788,124.8a9.536,9.536,0,0,1-1.549-.155,5.409,5.409,0,0,1-1.549-.62,6.446,6.446,0,0,1-1.394-1.007,7.021,7.021,0,0,1-1.007-1.472,5.486,5.486,0,0,1-.387-2.014,6.069,6.069,0,0,1,.31-2.014,5.85,5.85,0,0,1,1.007-1.782A5.5,5.5,0,0,1,243,114.342a5.726,5.726,0,0,1,2.634-.542,11.557,11.557,0,0,1,1.627.155,4.083,4.083,0,0,1,1.162.387c.232.155.387.31.31.465l-.232.7a1.086,1.086,0,0,1-.31.542.494.494,0,0,1-.465,0,2.718,2.718,0,0,1-.62-.387,2.479,2.479,0,0,0-1.007-.387,7.828,7.828,0,0,0-1.317-.232,3.094,3.094,0,0,0-2.4.93,3.823,3.823,0,0,0-.775,2.634,4.949,4.949,0,0,0,.465,2.169,3.654,3.654,0,0,0,1.085,1.472,9.126,9.126,0,0,0,1.472.852,6.034,6.034,0,0,0,1.627.31,8.889,8.889,0,0,0,1.085-.155,5.182,5.182,0,0,0,1.317-.542c.077,0,.155,0,.232.155s.155.232.077.31a4.445,4.445,0,0,1-1.549,1.162,4.816,4.816,0,0,1-1.627.465Z" transform="translate(-54.905 -110.275)" fill="#003876"/>
    <path id="Path_90" data-name="Path 90" d="M265.956,124.077c.077,0,.155.077.155.232s-.077.232-.155.232H262c-.077,0-.155-.077-.155-.232s0-.232.077-.232a3.356,3.356,0,0,0,.387-.077c.077,0,.232-.155.31-.232a.434.434,0,0,0,.077-.465,4.178,4.178,0,0,0-.232-.775l-.155-.387c-.077-.155-.155-.31-.31-.31s-.31-.077-.542-.077h-3.021c-.232,0-.465,0-.542.077s-.232.155-.31.31l-.155.387a1.732,1.732,0,0,0-.232.775c0,.232,0,.387.155.465a1.069,1.069,0,0,1,.31.232c.077.077.31.077.465.077.077,0,.155.077.155.232s-.077.232-.155.232h-3.176c-.077,0-.155-.077-.155-.232s0-.232.155-.232a1.719,1.719,0,0,0,.852-.387,3.787,3.787,0,0,0,.7-1.162l2.556-5.81a9.075,9.075,0,0,0,.775-2.479c0-.077.155-.155.542-.155.387-.077.542-.077.542,0l3.641,8.522a3.475,3.475,0,0,0,.7,1.239,1.471,1.471,0,0,0,.7.232Zm-4.571-3.176h.232c.077,0,.077,0,.155-.077s.077-.077,0-.155l-1.782-4.183-1.782,4.183c0,.077,0,.155.077.155s.155.077.31.077Z" transform="translate(-58.263 -110.326)" fill="#003876"/>
    <path id="Path_91" data-name="Path 91" d="M282.671,124.791a.585.585,0,0,1-.542-.31L275,117.044V122.7a1.51,1.51,0,0,0,.077.62.774.774,0,0,0,.31.387,1.693,1.693,0,0,1,.387.232,3.514,3.514,0,0,0,.62.155c.077,0,.077.077.077.232s-.077.232-.155.232h-3.564c-.077,0-.077-.077-.155-.232,0-.155,0-.232.077-.232a6.71,6.71,0,0,0,.93-.387,1.314,1.314,0,0,0,.31-1.007v-5.81a3.213,3.213,0,0,0-.542-2.092.27.27,0,0,1-.077-.155.076.076,0,0,0-.077-.077l-.077-.077v-.077a.274.274,0,0,1,.31-.31h1.085a.592.592,0,0,1,.387.155l6.972,7.359v-5.578a1.51,1.51,0,0,0-.077-.62.636.636,0,0,0-.387-.387,1.694,1.694,0,0,1-.387-.232c-.077-.077-.31-.077-.542-.155-.078,0-.078-.077-.078-.232s.078-.232.155-.232h3.564c.077,0,.077.077.155.232,0,.155,0,.232-.077.232a3.045,3.045,0,0,1-.465.155.708.708,0,0,0-.387.232,1.361,1.361,0,0,0-.31.387,1.51,1.51,0,0,0-.077.62v5.81a17.189,17.189,0,0,0,.155,2.634.285.285,0,0,1-.077.232.58.58,0,0,1-.387.077Z" transform="translate(-62.273 -110.343)" fill="#003876"/>
    <path id="Path_92" data-name="Path 92" d="M301.533,124.077c.077,0,.155.077.155.232s-.077.232-.155.232h-3.951c-.077,0-.155-.077-.155-.232s0-.232.077-.232a3.354,3.354,0,0,0,.387-.077c.077,0,.232-.155.31-.232a.434.434,0,0,0,.077-.465,4.178,4.178,0,0,0-.232-.775l-.155-.387c-.077-.155-.155-.31-.31-.31s-.31-.077-.542-.077h-3.021c-.232,0-.465,0-.542.077s-.232.155-.31.31l-.155.387a1.732,1.732,0,0,0-.232.775c0,.232,0,.387.155.465a1.069,1.069,0,0,1,.31.232c.077.077.31.077.465.077.077,0,.155.077.155.232s-.077.232-.155.232h-3.254c-.077,0-.155-.077-.155-.232s0-.232.155-.232a1.72,1.72,0,0,0,.852-.387,3.787,3.787,0,0,0,.7-1.162l2.556-5.81a9.075,9.075,0,0,0,.775-2.479c0-.077.155-.155.542-.155.387-.077.542-.077.542,0l3.641,8.522a3.475,3.475,0,0,0,.7,1.239,2.274,2.274,0,0,0,.775.232Zm-4.571-3.176h.232c.077,0,.077,0,.155-.077s.077-.077,0-.155l-1.782-4.183-1.782,4.183c0,.077,0,.155.077.155s.155.077.31.077Z" transform="translate(-66.261 -110.326)" fill="#003876"/>
  </g>
  <rect id="Rectangle_3" data-name="Rectangle 3" width="53.995" height="2.556" transform="translate(1.394 92.342)" fill="#ed232a"/>
  <g id="Group_6" data-name="Group 6" transform="translate(0 105.899)">
    <path id="Path_93" data-name="Path 93" d="M3.479,168.31c-.077,0-.077-.077-.077-.155s-.077-.232-.077-.31,0-.155.077-.155A4.37,4.37,0,0,0,4.8,167.3a.89.89,0,0,0,.465-.852V158.7c0-.232-.077-.387-.155-.387a.581.581,0,0,0-.387-.077h-.31a4.306,4.306,0,0,0-1.782.31c-.542.232-.852.465-.93.775a.325.325,0,0,1-.465.232A.205.205,0,0,1,1,159.324a11.641,11.641,0,0,0,.387-2.014.4.4,0,0,1,.155-.31H1.93c.852.077,2.4.155,4.648.155,2.479,0,4.183-.077,5.113-.155h.232c.077,0,.155,0,.155.077a.145.145,0,0,1,0,.232c-.232.775-.387,1.472-.542,2.014,0,.155-.155.232-.31.232s-.31-.077-.31-.232a1.322,1.322,0,0,0-.7-.775,3.072,3.072,0,0,0-1.549-.31H8.282c-.465,0-.62.155-.62.542v7.747a.89.89,0,0,0,.465.852,4.369,4.369,0,0,0,1.394.387c.077,0,.077.077.077.155a.586.586,0,0,1-.077.31c-.077.077-.077.155-.155.155H3.479Z" transform="translate(-1 -156.768)" fill="#ed232a"/>
    <path id="Path_94" data-name="Path 94" d="M29.195,167.823c.077,0,.077.077.077.232s0,.232-.077.232a3.338,3.338,0,0,1-3.8-1.007l-2.479-3.1a2.466,2.466,0,0,0-1.007-.852,3.9,3.9,0,0,0-1.472-.232v3.1a1.206,1.206,0,0,0,.465,1.085,2.945,2.945,0,0,0,1.317.387.27.27,0,0,1,.077.155.466.466,0,0,1-.077.31.27.27,0,0,1-.077.155h-5.19c-.077,0-.077-.077-.077-.155s-.077-.232-.077-.31,0-.155.077-.155a1.724,1.724,0,0,0,1.007-.387,1.315,1.315,0,0,0,.31-1.007v-7.05a1.515,1.515,0,0,0-.31-1.085,2.449,2.449,0,0,0-1.007-.542c-.077,0-.077-.155-.077-.31,0-.232.077-.31.155-.31a13.159,13.159,0,0,0,1.859.077,18.245,18.245,0,0,0,1.937-.077c.775,0,1.317-.077,1.549-.077a5.252,5.252,0,0,1,3.1.775,2.609,2.609,0,0,1,1.085,2.169,2.568,2.568,0,0,1-.852,2.014,3.148,3.148,0,0,1-2.092.775v.077a2.144,2.144,0,0,1,1.007.232,4.061,4.061,0,0,1,1.007,1.007l2.247,2.866c.542.7,1.007,1.007,1.394,1.007Zm-8.289-5.5a5.383,5.383,0,0,0,2.4-.387,1.659,1.659,0,0,0,.62-1.472,2.551,2.551,0,0,0-.62-1.859,2.412,2.412,0,0,0-1.7-.62c-.465,0-.775.077-.93.31a1.758,1.758,0,0,0-.232,1.007v3.1h.465Z" transform="translate(-4.56 -156.745)" fill="#ed232a"/>
    <path id="Path_95" data-name="Path 95" d="M45.73,167.623c.077,0,.155.155.155.31,0,.232-.077.31-.155.31H41.082c-.077,0-.155-.077-.155-.31s0-.31.155-.31a1.1,1.1,0,0,0,.465-.155c.077-.077.232-.155.31-.232a.831.831,0,0,0,.155-.465,1.732,1.732,0,0,0-.232-.775l-.077-.155a.828.828,0,0,0-.232-.387c-.077-.077-.232-.077-.465-.077H37.828c-.232,0-.465,0-.542.077a.838.838,0,0,0-.31.387L36.9,166a1.732,1.732,0,0,0-.232.775.655.655,0,0,0,.155.465,1.693,1.693,0,0,0,.387.232,4.938,4.938,0,0,0,.542.155c.077,0,.155.155.155.31,0,.232-.077.31-.155.31h-3.8c-.077,0-.155-.077-.155-.31s0-.31.077-.31a2.178,2.178,0,0,0,.852-.387,3.475,3.475,0,0,0,.7-1.24l2.711-6.352a8.111,8.111,0,0,0,.852-2.634c0-.077.155-.155.542-.232a2.9,2.9,0,0,1,.62-.077l3.951,9.141a3.411,3.411,0,0,0,.775,1.239,1.473,1.473,0,0,0,.852.542Zm-5.19-3.254h.155c.077,0,.077-.077.155-.077s.077-.077,0-.155l-1.627-3.873L37.6,164.137c-.077.077,0,.155,0,.232.077.077.155.077.31.077H40.54Z" transform="translate(-8.39 -156.7)" fill="#ed232a"/>
    <path id="Path_96" data-name="Path 96" d="M57.86,162.045a2.8,2.8,0,0,1,2.092.775,2.653,2.653,0,0,1,.93,2.092,2.853,2.853,0,0,1-1.317,2.4,5.392,5.392,0,0,1-3.254.93,9.143,9.143,0,0,1-1.239-.077c-.62,0-1.162-.077-1.7-.077a24.279,24.279,0,0,0-2.711.077c-.077,0-.077-.077-.155-.31,0-.232,0-.31.077-.387a3.6,3.6,0,0,0,.7-.232l.465-.232a.793.793,0,0,0,.387-.465,1.719,1.719,0,0,0,.077-.7v-7.05a1.309,1.309,0,0,0-.232-.775,1.033,1.033,0,0,0-.465-.387,3.6,3.6,0,0,0-.7-.232c-.077,0-.077-.155-.077-.31,0-.232.077-.31.155-.31a14.982,14.982,0,0,0,2.014.077,16.85,16.85,0,0,0,1.937-.077c.7,0,1.085-.077,1.239-.077a4.593,4.593,0,0,1,2.634.7,2.209,2.209,0,0,1,1.085,1.937,2.11,2.11,0,0,1-.542,1.549,2.549,2.549,0,0,1-1.549.852l.155.31Zm-3.1-3.951a1.246,1.246,0,0,0-.232.852v2.789h1.549c.852,0,1.317-.542,1.317-1.7a2.182,2.182,0,0,0-.542-1.627,1.865,1.865,0,0,0-1.472-.62A.956.956,0,0,0,54.761,158.094Zm3.564,7.282a2.982,2.982,0,0,0-.62-1.859,1.854,1.854,0,0,0-1.627-.775H54.528v3.331a1.338,1.338,0,0,0,.387,1.007,1.708,1.708,0,0,0,1.239.31C57.55,167.313,58.324,166.693,58.324,165.376Z" transform="translate(-12.153 -156.7)" fill="#ed232a"/>
    <path id="Path_97" data-name="Path 97" d="M77.575,167.623c.077,0,.155.155.155.31,0,.232-.077.31-.155.31H72.927c-.077,0-.155-.077-.155-.31s0-.31.155-.31a1.1,1.1,0,0,0,.465-.155c.077-.077.232-.155.31-.232a.831.831,0,0,0,.155-.465,1.732,1.732,0,0,0-.232-.775l-.077-.155a.828.828,0,0,0-.232-.387c-.077-.077-.232-.077-.465-.077H69.673c-.232,0-.465,0-.542.077a.838.838,0,0,0-.31.387l-.077.155a1.732,1.732,0,0,0-.232.775.655.655,0,0,0,.155.465,1.693,1.693,0,0,0,.387.232,4.936,4.936,0,0,0,.542.155c.077,0,.155.155.155.31,0,.232-.077.31-.155.31H65.955c-.077,0-.155-.077-.155-.31s0-.31.077-.31a2.178,2.178,0,0,0,.852-.387,3.475,3.475,0,0,0,.7-1.24l2.711-6.352a8.111,8.111,0,0,0,.852-2.634c0-.077.155-.155.542-.232a2.9,2.9,0,0,1,.62-.077l3.951,9.141a3.411,3.411,0,0,0,.775,1.239.858.858,0,0,0,.7.542Zm-5.19-3.254h.155c.077,0,.077-.077.155-.077s.077-.077,0-.155l-1.627-3.873-1.627,3.873c-.077.077,0,.155,0,.232.077.077.155.077.31.077h2.634Z" transform="translate(-15.6 -156.7)" fill="#ed232a"/>
    <path id="Path_98" data-name="Path 98" d="M82.61,171.8c-.077,0-.155-.077-.232-.155a.466.466,0,0,1-.077-.31c0-.077,0-.155.077-.155a1.673,1.673,0,0,0,1.085-.7,3.578,3.578,0,0,0,.387-2.014v-9.374a1.4,1.4,0,0,0-.31-1.085,1.724,1.724,0,0,0-1.007-.387c-.077,0-.077-.077-.077-.155a.586.586,0,0,1,.077-.31L82.61,157H87.49c.077,0,.077.077.077.155s.077.155.077.31c0,.077,0,.155-.077.155-.232.077-.465.077-.7.155a2.054,2.054,0,0,0-.465.387,1.392,1.392,0,0,0-.232.852v9.374a2.813,2.813,0,0,1-1.317,2.247A3.717,3.717,0,0,1,82.61,171.8Z" transform="translate(-19.318 -156.768)" fill="#ed232a"/>
    <path id="Path_99" data-name="Path 99" d="M96.988,168.475a5.663,5.663,0,0,1-4.183-1.627,5.721,5.721,0,0,1-1.7-4.183,5.97,5.97,0,0,1,1.627-4.261,5.6,5.6,0,0,1,4.261-1.7,5.663,5.663,0,0,1,4.183,1.627,5.721,5.721,0,0,1,1.7,4.183,5.97,5.97,0,0,1-1.627,4.261,5.492,5.492,0,0,1-4.261,1.7Zm.7-1.239a2.727,2.727,0,0,0,2.014-.93,4.135,4.135,0,0,0,.852-2.789,6.225,6.225,0,0,0-1.317-3.951,3.735,3.735,0,0,0-2.944-1.627,2.727,2.727,0,0,0-2.014.93,4.135,4.135,0,0,0-.852,2.789,6.225,6.225,0,0,0,1.317,3.951,3.735,3.735,0,0,0,2.944,1.627Z" transform="translate(-21.301 -156.7)" fill="#ed232a"/>
  </g>
</svg>

